<svg xmlns="http://www.w3.org/2000/svg" viewBox="0 0 364 364"><title>ai</title><g id="Layer_2" data-name="Layer 2"><g id="Layer_1-2" data-name="Layer 1"><path d="M0,0V364H364V0ZM352.5,352.5H11.5V11.5h341Z"/><path d="M114.8,211.3,94.91,269.4H69.34L134.41,84.68h29.84L229.6,269.4H203.17l-20.46-58.1Zm62.8-18.64-18.75-53.17c-4.26-12.06-7.1-23-9.95-33.71h-.57c-2.84,11-6,22.2-9.66,33.44l-18.75,53.45Z"/><path d="M283.87,99.48c.28,8.22-6,14.8-15.91,14.8a14.6,14.6,0,0,1-15.06-14.8c0-8.5,6.54-15.07,15.63-15.07C277.9,84.4,283.87,91,283.87,99.48ZM256,269.4V136.75h25V269.4Z"/></g></g></svg>