<svg xmlns="http://www.w3.org/2000/svg" viewBox="0 0 364 364"><title>es6</title><g id="Layer_2" data-name="Layer 2"><g id="Layer_1-2" data-name="Layer 1"><path d="M0,0V364H364V0ZM127.75,234.24H57.81v-120H125v13H73.86v37.91h48.35V178H73.86v43.25h53.89ZM174.07,236c-12,0-25.1-3.38-31.74-7.65l4.06-13a58.46,58.46,0,0,0,28.79,7.83c16.42,0,26-8.37,26-20.47,0-11.21-6.64-17.62-23.44-23.85-20.3-6.94-32.85-17.09-32.85-34,0-18.69,16.05-32.57,40.23-32.57,12.73,0,22,2.85,27.5,5.87l-4.43,12.64a51,51,0,0,0-23.62-5.7c-17,0-23.44,9.79-23.44,18,0,11.21,7.57,16.73,24.73,23.14,21,7.83,31.74,17.62,31.74,35.24C217.62,220,203.41,236,174.07,236Zm100.2.18c-25.65,0-42.44-19.22-42.44-49.3,0-22.78,8.49-40.76,20.3-52.15,10-9.43,23.25-15.31,38.38-17.09a80.67,80.67,0,0,1,11.81-.89v12.82a60.78,60.78,0,0,0-12.18.71c-25.47,4.09-38.94,22.07-41.71,41.12H249c5.72-7.3,15.69-13.35,29-13.35,21.22,0,36.17,14.77,36.17,37.38C314.13,216.62,299.18,236.2,274.27,236.2Z"/><path d="M273,169.81A26.82,26.82,0,0,0,249.73,184a13,13,0,0,0-1.85,6.94c.37,19,9.41,33.11,26.39,33.11,14,0,23.44-11.21,23.44-27.77S287.93,169.81,273,169.81Z"/></g></g></svg>