<svg xmlns="http://www.w3.org/2000/svg" viewBox="0 0 618.11 617.56"><title>express</title><g id="Layer_2" data-name="Layer 2"><g id="Layer_3" data-name="Layer 3"><path d="M309.21,617.52C138.83,620.32,0,474.85,0,309.11,0,140.9,140.94,0,309.14,0c168,0,308.77,140.87,309,308.79C618.3,474.66,479.43,620.17,309.21,617.52ZM294.37,318.26a32.64,32.64,0,0,0,.56-4.27c-.27-25.82-4.48-50.78-17.07-73.7-12.24-22.29-29.51-39.43-54.28-46.72-49.36-14.52-103.63,3-128.17,55.94C75,293.45,78.71,337.63,100.52,380c13,25.21,35.27,39.9,62.87,46.11a126.9,126.9,0,0,0,53.12,1c37.47-7.5,63.31-28.25,73.37-66.27.48-1.83.69-3.73,1.13-6.17-11.5,0-22.31.12-33.11-.07-3.32-.06-4.57,1.13-5.38,4.28-2.58,10-8.48,17.9-16.63,24.27-14.43,11.28-31.11,13.64-48.67,12.66-32.49-1.81-56.53-22.4-62.5-54-1.42-7.53-1.54-15.3-2.31-23.51ZM525.1,189.44c-2.51-.15-3.95-.31-5.39-.31-12.33,0-24.66.12-37-.09-3.58-.06-5.74,1.15-7.78,4.05Q448.41,230.66,421.62,268c-1,1.43-2.16,2.78-3.61,4.63-1.49-2.1-2.65-3.67-3.76-5.28q-25.43-37.1-50.79-74.26a8.15,8.15,0,0,0-7.74-4.08c-13.33.2-26.66.07-40,.09-1.55,0-3.11.18-5.56.33,1.74,2.48,2.84,4.11,4,5.69q38,51.77,76.14,103.47c2.39,3.23,2.5,5.25.11,8.57q-41.7,58-83.08,116.33c-1.11,1.55-2.1,3.18-3.72,5.64h5.94c12.16,0,24.33-.17,36.49.1,4,.09,6.29-1.29,8.47-4.56q29.82-44.7,59.93-89.2c1.07-1.59,2.25-3.12,3.73-5.16,1.44,2.07,2.49,3.52,3.5,5q30.14,44.78,60.2,89.62c2.11,3.17,4.34,4.34,8.12,4.28,13.16-.23,26.33-.08,39.49-.1,1.68,0,3.36-.18,5.86-.32-1.77-2.53-2.89-4.17-4-5.78-28.25-39.41-56.42-78.87-84.86-118.13-3-4.19-2.74-6.63.25-10.58,25-33.09,49.8-66.37,74.64-99.6C522.4,193.29,523.42,191.8,525.1,189.44Z"/><path d="M254.46,286.78H122.83c2-21.28,9.45-39.49,26.92-51.94,22.06-15.72,46-16.86,69.84-4.53C241.93,241.86,251.89,261.81,254.46,286.78Z"/></g></g></svg>