<svg xmlns="http://www.w3.org/2000/svg" viewBox="0 0 96.68 109.02"><title>js</title><g id="Layer_2" data-name="Layer 2"><g id="Layer_1-2" data-name="Layer 1"><path d="M48.33,109a8.37,8.37,0,0,1-4.19-1.12L30.8,100c-2-1.11-1-1.51-.36-1.74a26.6,26.6,0,0,0,6-2.74,1,1,0,0,1,1,.08l10.25,6.08a1.32,1.32,0,0,0,1.24,0L88.9,78.62a1.26,1.26,0,0,0,.61-1.08V31.44a1.29,1.29,0,0,0-.62-1.1L49,7.3a1.25,1.25,0,0,0-1.23,0L7.8,30.34a1.28,1.28,0,0,0-.63,1.09v46.1a1.22,1.22,0,0,0,.63,1.07l10.94,6.32c5.94,3,9.57-.53,9.57-4V35.37a1.15,1.15,0,0,1,1.16-1.15h5.07a1.15,1.15,0,0,1,1.16,1.15V80.89c0,7.92-4.32,12.47-11.83,12.47-2.31,0-4.13,0-9.2-2.5l-10.48-6A8.44,8.44,0,0,1,0,77.54V31.44a8.42,8.42,0,0,1,4.19-7.28L44.14,1.07a8.75,8.75,0,0,1,8.4,0L92.48,24.16a8.43,8.43,0,0,1,4.2,7.28v46.1a8.46,8.46,0,0,1-4.2,7.29L52.54,107.89A8.38,8.38,0,0,1,48.33,109Z"/><path d="M60.67,77.25c-17.48,0-21.14-8-21.14-14.76a1.15,1.15,0,0,1,1.15-1.15h5.16a1.16,1.16,0,0,1,1.15,1c.78,5.26,3.1,7.91,13.68,7.91,8.42,0,12-1.9,12-6.37,0-2.57-1-4.48-14.1-5.77C47.64,57,40.88,54.61,40.88,45.86,40.88,37.8,47.68,33,59.07,33,71.87,33,78.2,37.44,79,47a1.16,1.16,0,0,1-1.15,1.26H72.66a1.15,1.15,0,0,1-1.12-.9C70.3,41.79,67.27,40,59.07,40c-9.19,0-10.26,3.2-10.26,5.6,0,2.91,1.26,3.75,13.67,5.39s18.11,3.92,18.11,12.55S73.33,77.25,60.67,77.25Z"/></g></g></svg>