<svg xmlns="http://www.w3.org/2000/svg" viewBox="0 0 530 530"><title>php</title><g id="Layer_2" data-name="Layer 2"><g id="Layer_3" data-name="Layer 3"><path d="M405.55,232.19H383.8l-11.86,61h19.31q19.2,0,28.6-7.23t12.69-24.16q3.15-16.25-2.87-22.93T405.55,232.19Z"/><path d="M157.74,232.19H136l-11.86,61h19.31q19.2,0,28.6-7.23t12.69-24.16q3.15-16.25-2.87-22.93T157.74,232.19Z"/><path d="M265,0C118.64,0,0,118.64,0,265S118.64,530,265,530,530,411.36,530,265,411.36,0,265,0ZM197.61,299.73a56.09,56.09,0,0,1-21.13,12.68q-11.62,3.79-29.62,3.78h-27.2l-7.53,38.75H80.38l28.33-145.75h61.05q27.55,0,40.19,14.46t7.6,40.38a63.33,63.33,0,0,1-19.94,35.7Zm92.68,16.46,12.53-64.49q2.14-11-1.57-15t-15.8-4H260.26L244,316.19h-31.5l28.33-145.75h31.5l-7.53,38.75H292.9q26.48,0,36.54,9.24t6,29.94l-13.18,67.82Zm168.06-32.64a65.08,65.08,0,0,1-12.92,16.18,56.09,56.09,0,0,1-21.13,12.68q-11.62,3.79-29.62,3.78h-27.2l-7.53,38.75H328.19l28.33-145.75h61.05q27.55,0,40.19,14.46t7.6,40.38A65.25,65.25,0,0,1,458.35,283.55Z"/></g></g></svg>