<svg xmlns="http://www.w3.org/2000/svg" viewBox="0 0 364 364"><title>ps</title><g id="Layer_2" data-name="Layer 2"><g id="Layer_1-2" data-name="Layer 1"><path d="M0,0V364H364V0ZM352.5,352.5H11.5V11.5h341Z"/><path d="M74.88,86.87a296.83,296.83,0,0,1,47.45-3.56c24.44,0,42.34,5.48,53.7,15.35,10.51,8.77,16.76,22.2,16.76,38.65,0,16.72-5.11,29.87-14.78,39.47C165,190.2,143.64,197,119.49,197c-7.39,0-14.21-.27-19.89-1.64v74H74.88ZM99.6,175.94c5.4,1.37,12.22,1.92,20.46,1.92,29.84,0,48-14,48-39.47,0-24.39-17.9-36.18-45.18-36.18-10.8,0-19,.82-23.3,1.92Z"/><path d="M215.53,244.74c7.39,4.66,20.46,9.59,33,9.59,18.19,0,26.71-8.77,26.71-19.73,0-11.51-7.1-17.81-25.57-24.39-24.72-8.5-36.37-21.65-36.37-37.55,0-21.38,17.9-38.92,47.45-38.92,13.92,0,26.14,3.84,33.81,8.22l-6.25,17.54a55,55,0,0,0-28.13-7.67c-14.78,0-23,8.22-23,18.09,0,11,8.24,15.9,26.14,22.47,23.87,8.77,36.09,20.28,36.09,40,0,23.3-18.75,39.74-51.43,39.74-15.06,0-29-3.56-38.64-9Z"/></g></g></svg>