<svg xmlns="http://www.w3.org/2000/svg" viewBox="0 0 507.11 507.11"><title>sass</title><g id="Layer_2" data-name="Layer 2"><g id="Layer_1-2" data-name="Layer 1"><path d="M161.45,361.27c-3,4.84-6,10.3-6.91,15.82-1.88,11.08,1.74,16.28,14.44,14.79,10.26-1.21,18.14-7.14,24.8-14.67,10.93-12.34,13-33.26,4.52-46.83C183.05,337.54,170.29,347.21,161.45,361.27Z"/><path d="M253.55,0C113.52,0,0,113.52,0,253.55S113.52,507.11,253.55,507.11,507.11,393.59,507.11,253.55,393.59,0,253.55,0ZM383.37,163.92c-5.75,19.18-17.26,34.53-32.83,46.66-29.2,22.76-62.45,31.19-99,25.9-14.18-2.05-24.71-11-34.73-20.44-.87-.82-1.28-2.11-2.42-4.06,2.59,0,4.36-.34,5.9.09a17.83,17.83,0,0,1,5.36,2.62c14.67,10.33,30.82,11.61,47.79,8C297.24,217.58,320,210,339.24,194.3c11.32-9.25,20.11-20.36,23.17-35.16,2.92-14.12-1.77-24.9-14.15-32.19-9.41-5.53-19.73-7.82-30.51-8.4-28-1.52-54.06,5.94-79.35,16.92-28.28,12.27-54.14,28.13-73.91,52.3a106.26,106.26,0,0,0-13.7,21.87c-5.34,11.34-4,23,3,33.3a144.6,144.6,0,0,0,17.65,20.91c12.07,11.94,25.38,22.69,36.9,35.12,5.7,6.15,10,7.15,17.58,4.49,19.11-6.71,38.26-4.62,56.47,3.38,14.64,6.43,24.55,17.51,27.18,34,2.1,13.2-4,26.32-15.11,32.27a15.84,15.84,0,0,1-5.58,2c-1.18.12-2.5-1.06-3.76-1.65a14.16,14.16,0,0,1,1.71-3.27c3-3.23,7.15-5.81,9-9.56,8.76-18.21-.67-32.81-19.45-42-13.94-6.82-37-6-52.32,1a14.5,14.5,0,0,0,.59,2.16c12.65,29,4.34,61-21.18,79.71-13.91,10.2-29.25,16.3-47.09,14.24-21.92-2.54-34.73-20.46-29.83-42.11,2.39-10.57,8-19.29,15.16-27.16a103.25,103.25,0,0,1,37-26.69,38.28,38.28,0,0,0,8.78-5c-1.59-.84-3.42-1.42-4.74-2.57-8.68-7.54-17.62-14.83-25.76-22.92-8.94-8.9-18.1-17.87-25.41-28.06-14.9-20.78-17.66-43.76-6.58-67.09,5.23-11,11.35-22.28,19.61-31,25.93-27.45,56.43-48.94,92.57-60.83,34.88-11.48,70.56-13.1,106.34-3.66a74.93,74.93,0,0,1,14.36,5.64C381.89,116.38,391.14,138,383.37,163.92Z"/></g></g></svg>