<svg xmlns="http://www.w3.org/2000/svg" viewBox="0 0 146 146"><title>sql</title><g id="Layer_2" data-name="Layer 2"><g id="Layer_1-2" data-name="Layer 1"><path d="M73,0a73,73,0,1,0,73,73A73,73,0,0,0,73,0Zm47.89,120c-.91-.32-1.37-1.17-2.08-1.69-1.44-1-2.87-2.15-4.3-3.06-2.47-1.56-5.34-2.47-7.88-4-1.44-.91-2.8-2-4.17-3a15.21,15.21,0,0,1-3.39-4c-.46-.72-.52-1.57-1-2.09.13-1.24,1.69-1.24,2.67-1.63,3.39-1.43,7.42-2,12.64-1.82-.2-1.3-3.45-2.93-4.49-3.71-2.09-1.5-4.3-3.07-6.51-4.43a46.63,46.63,0,0,0-4.49-1.82c-1.76-.72-5.67-1.43-6.64-2.8a42.82,42.82,0,0,1-4.63-8.73c-1.36-3.12-3.06-6.38-4.43-9.58-.71-1.56-1-2.93-1.83-4.43A57.81,57.81,0,0,0,60,40.93a41.69,41.69,0,0,0-9.38-4.49c-2-.59-4.3-.26-6.39-.71H42.85c-1.17-.33-2.15-1.57-3.06-2.22a33.09,33.09,0,0,0-6.45-3.26c-.85-.39-3.26-1.3-4.1-.59a1,1,0,0,0-.91.85c-.52.78-.06,2,.26,2.67,1,2.08,2.34,3.32,3.59,5.08a34.81,34.81,0,0,1,3.26,5c1.69,3.65,2.47,7.69,4,11.33a25.79,25.79,0,0,0,2.34,4.17c.72,1,2,1.69,2.41,2.93.79,1.3-1.17,5.6-1.63,7-1.7,5.34-1.37,12.77.59,17.4.78,1.82,1.5,4,3.58,4.49.13-.13,0-.06.26-.13.46-3.58.59-7,1.83-9.84.72-1.75,2.14-3,3.12-4.42.65.39.65,1.57,1,2.34.85,2,1.76,4.23,2.8,6.26a83.39,83.39,0,0,0,7.29,11.86,32,32,0,0,0,3.39,3.91,7.17,7.17,0,0,1,1.5,1.3h.13v.2c-2-.72-3.19-2.73-4.75-3.91A37.17,37.17,0,0,1,54.9,89.4c-.85-1.83-1.76-3.58-2.67-5.41v-.13c-.39.52-.26,1-.45,1.82-.85,3.26-.2,7-3.13,8.14-3.32,1.37-5.8-2.21-6.84-3.84-3.32-5.41-4.23-14.53-1.89-21.89.52-1.63.59-3.58,1.5-4.89-.2-1.18-1.1-1.5-1.63-2.22a30.79,30.79,0,0,1-2.41-4A77.65,77.65,0,0,1,34,48.22c-.46-1.17-.59-2.35-1-3.45a30.52,30.52,0,0,0-3.32-4.88c-1.5-2.15-5.86-6.32-4.1-10.55,2.74-6.71,12.31-1.63,16,.72.91.59,2,1.82,3,2.28,1.63.06,3.26.19,4.89.26,3.06.72,5.92,1.3,8.34,2.67C69,41.84,76.26,48.55,83,59.62,84.41,62,85.13,64.51,86.3,67c1.63,3.78,3.45,7.76,5.34,11.34a26.14,26.14,0,0,0,2.67,5c.46.66,1.76.85,2.54,1.24,2.15,1.11,4.76,2,6.78,3.26a87.23,87.23,0,0,1,10.75,8c1.24,1.11,2.08,2.67,3.26,3.84v.59c-1,.32-2.09.65-3.13.91-2.28.58-4.3.45-6.51,1a26.17,26.17,0,0,1-4.5,1l.13.13c.84,2.4,5.41,4.36,7.49,5.79a31,31,0,0,1,6.77,6.58c.65.65,1.3,1.24,2,1.89.45.66.58,1.5,1,2.09ZM49.43,45a3.66,3.66,0,0,1-1.37,3.26l-.13.13c-.52-1-1-2.08-1.5-3.12a22,22,0,0,1-2.09-2.67h-.13v-.13a10.4,10.4,0,0,1,2.67-.33c.52.52,1.37.85,1.76,1.5A14.69,14.69,0,0,0,49.43,45Z"/></g></g></svg>