<svg xmlns="http://www.w3.org/2000/svg" viewBox="0 0 499.73 499.84"><title>wordpress</title><g id="Layer_2" data-name="Layer 2"><g id="Layer_1-2" data-name="Layer 1"><path d="M262.73,499.84h-26c-1.78-.34-3.55-.75-5.34-1-10.87-1.49-21.89-2.24-32.6-4.5C64.61,466-21.5,336.08,4.69,201.76c21.06-108,112-190.63,221.15-200.6,48.43-4.42,94.78,3.65,137.74,26.59,74.79,39.94,119.39,102,133.18,185.91,1.26,7.68,2,15.45,3,23.18v26a37,37,0,0,0-1,4.83c-2.2,33.11-10.44,64.68-25.89,94-39.94,75.83-102.22,121.19-187,135.18C278.22,498.13,270.46,498.86,262.73,499.84Zm-151-355.44,81.85,243.46c1-2.19,1.48-3,1.78-3.88q23.42-70.26,46.72-140.56a11,11,0,0,0-.26-6.65c-10.64-29.57-21.48-59.08-32.13-88.65-1.16-3.21-3-4.22-6.22-4.41-6.64-.39-13.28-1-19.87-1.92-5-.67-7.55-4.2-7.25-9.08.31-5,3.57-8.46,8.56-8.66,2.32-.09,4.65.31,7,.37,24.63.63,49.25,1.59,73.89,1.7,13.13.06,26.27-1.47,39.41-2.06a8.49,8.49,0,0,1,9.31,7.82c.61,5-2.32,9-7.58,10-2.61.49-5.28.67-7.93.92-6,.57-12.06,1.1-18.53,1.69L361.37,385c12.76-38.91,24.31-77.6,35.73-116.34,9-30.43,4.58-59.27-10.9-86.64-4.75-8.4-9.86-16.6-14.68-25-5.19-9-9-18.5-10.29-28.95-2.3-18.57,9.76-37.57,27.47-42.57,3.73-1.05,7.67-1.38,12.75-2.24C344.82,35,280.89,15.64,208.34,28.87,146.2,40.21,98.07,73.66,61.62,126.18a38.58,38.58,0,0,0,4.48.62c9.66-.09,19.33,0,29-.42,13.81-.59,27.6-1.67,41.41-2.31,5.32-.25,8.75,3,9.18,7.83.49,5.48-2,8.93-7.47,10-2.45.46-4.95.65-7.43.88C124.7,143.29,118.63,143.8,111.77,144.4ZM186,465.57c46.82,13.44,92.55,12.28,138.26-3.45l-69.89-191.4-1.36.16Zm-34.18-13.71L44.59,158.22C-5.49,268.41,43.45,401.12,151.78,451.86Zm295.93-307.7A219.34,219.34,0,0,1,446,193.54c-2.88,18.52-9.09,36-15.25,53.62-22.24,63.55-44.11,127.24-66.1,190.88-.57,1.66-1,3.37-1.61,5.47,38.52-20.51,85.68-67.26,103.62-133.85C482.13,252.09,475.61,196.82,447.71,144.16Z"/></g></g></svg>