<svg xmlns="http://www.w3.org/2000/svg" viewBox="0 0 364 364"><title>xd</title><g id="Layer_2" data-name="Layer 2"><g id="Layer_1-2" data-name="Layer 1"><path d="M0,0V364H364V0ZM352.5,352.5H11.5V11.5h341Z"/><path d="M159.34,269.4l-23.09-38.59c-9.4-14.76-15.3-24.35-20.94-34.45h-.54c-5.1,10.1-10.2,19.43-19.6,34.71L73.42,269.4H46.57l55.31-88.32L48.71,94.84H75.83l23.9,40.92c6.71,11.4,11.81,20.2,16.65,29.53h.8c5.1-10.36,9.67-18.39,16.38-29.53l24.7-40.92h26.85l-55,85,56.39,89.62Z"/><path d="M307.19,110.37v131c0,9.63.23,20.61.93,28H289.78l-.93-18.82h-.46c-6.27,12.1-20,21.28-38.32,21.28-27.17,0-48.07-22.18-48.07-55.1-.23-36.06,23-58.24,50.39-58.24,17.18,0,28.79,7.84,33.9,16.58h.46V110.37Zm-20.44,94.75a33.6,33.6,0,0,0-.93-8.29A29.82,29.82,0,0,0,256.34,174c-21.13,0-33.67,17.92-33.67,41.89,0,22,11.15,40.1,33.21,40.1a30.5,30.5,0,0,0,30-23.52,33.05,33.05,0,0,0,.93-8.51Z"/></g></g></svg>